<?xml version="1.0" standalone="no"?>
<!DOCTYPE svg PUBLIC "-//W3C//DTD SVG 20010904//EN"
 "http://www.w3.org/TR/2001/REC-SVG-20010904/DTD/svg10.dtd">
<svg version="1.0" xmlns="http://www.w3.org/2000/svg"
 width="16.000000pt" height="16.000000pt" viewBox="0 0 16.000000 16.000000"
 preserveAspectRatio="xMidYMid meet">

<g transform="translate(0.000000,16.000000) scale(0.100000,-0.100000)"
fill="#000000" stroke="none">
<path d="M135 149 c-4 -6 -5 -13 -2 -16 7 -7 27 6 27 18 0 12 -17 12 -25 -2z"/>
<path d="M19 124 c-10 -13 -10 -22 0 -51 12 -33 12 -38 -5 -50 -9 -7 -14 -16
-11 -20 4 -3 14 2 21 13 12 16 18 17 34 7 42 -25 106 74 67 103 -11 9 -24 10
-34 4 -10 -5 -23 -5 -32 1 -19 12 -25 11 -40 -7z"/>
</g>
</svg>
